<mxfile host="app.diagrams.net" modified="2024-04-19T04:55:56.358Z" agent="Mozilla/5.0 (Windows NT 10.0; Win64; x64) AppleWebKit/537.36 (KHTML, like Gecko) Chrome/123.0.0.0 Safari/537.36" version="24.0.2" etag="cqyRC1Jj9E1-6G1Kwy0h" type="github">
  <diagram name="Page-1" id="lF7UuOzPMNolgxZjFMLM">
    <mxGraphModel>
      <root>
        <mxCell id="0" />
        <mxCell id="1" parent="0" />
      </root>
    </mxGraphModel>
  </diagram>
</mxfile>
